<svg xmlns="http://www.w3.org/2000/svg" viewBox="0 0 220 195" width="220" height="195" role="img" aria-label="Robot power-up mushroom">
  <line x1="110" y1="13" x2="110" y2="28" stroke="#1A1A2E" stroke-width="4" stroke-linecap="round"/>
  <circle cx="110" cy="10" r="5" fill="#2DD4BF" stroke="#1A1A2E" stroke-width="3"/>
  <rect x="70" y="138" width="80" height="48" rx="8" fill="#FFF4D6" stroke="#1A1A2E" stroke-width="5"/>
  <path d="M 15 140 Q 15 25 110 25 Q 205 25 205 140 Z" fill="#D97757" stroke="#1A1A2E" stroke-width="5"/>
  <rect x="58" y="60" width="32" height="32" rx="5" fill="#FFF4D6" stroke="#1A1A2E" stroke-width="4"/>
  <rect x="130" y="60" width="32" height="32" rx="5" fill="#FFF4D6" stroke="#1A1A2E" stroke-width="4"/>
  <rect x="68" y="70" width="12" height="12" fill="#1A1A2E"/>
  <rect x="140" y="70" width="12" height="12" fill="#1A1A2E"/>
  <rect x="78" y="105" width="64" height="14" rx="3" fill="#1A1A2E"/>
  <line x1="90.8" y1="105" x2="90.8" y2="119" stroke="#FFF4D6" stroke-width="2"/>
  <line x1="103.6" y1="105" x2="103.6" y2="119" stroke="#FFF4D6" stroke-width="2"/>
  <line x1="116.4" y1="105" x2="116.4" y2="119" stroke="#FFF4D6" stroke-width="2"/>
  <line x1="129.2" y1="105" x2="129.2" y2="119" stroke="#FFF4D6" stroke-width="2"/>
</svg>
